<svg id="visual" viewBox="0 0 900 600" width="900" height="600" xmlns="http://www.w3.org/2000/svg" xmlns:xlink="http://www.w3.org/1999/xlink" version="1.1"><rect x="0" y="0" width="900" height="600" fill="#ecdcdc"></rect><defs><linearGradient id="grad1_0" x1="33.3%" y1="0%" x2="100%" y2="100%"><stop offset="20%" stop-color="#dc3545" stop-opacity="1"></stop><stop offset="80%" stop-color="#dc3545" stop-opacity="1"></stop></linearGradient></defs><defs><linearGradient id="grad1_1" x1="33.3%" y1="0%" x2="100%" y2="100%"><stop offset="20%" stop-color="#dc3545" stop-opacity="1"></stop><stop offset="80%" stop-color="#ecdcdc" stop-opacity="1"></stop></linearGradient></defs><defs><linearGradient id="grad2_0" x1="0%" y1="0%" x2="66.7%" y2="100%"><stop offset="20%" stop-color="#dc3545" stop-opacity="1"></stop><stop offset="80%" stop-color="#dc3545" stop-opacity="1"></stop></linearGradient></defs><defs><linearGradient id="grad2_1" x1="0%" y1="0%" x2="66.7%" y2="100%"><stop offset="20%" stop-color="#ecdcdc" stop-opacity="1"></stop><stop offset="80%" stop-color="#dc3545" stop-opacity="1"></stop></linearGradient></defs><g transform="translate(900, 0)"><path d="M0 324.5C-43.6 321 -87.2 317.6 -124.2 299.8C-161.2 282 -191.7 249.9 -217.8 217.8C-243.9 185.6 -265.6 153.4 -282.7 117.1C-299.8 80.8 -312.1 40.4 -324.5 0L0 0Z" fill="#ed8f90"></path><path d="M0 162.2C-21.8 160.5 -43.6 158.8 -62.1 149.9C-80.6 141 -95.8 125 -108.9 108.9C-121.9 92.8 -132.8 76.7 -141.4 58.6C-149.9 40.4 -156.1 20.2 -162.2 0L0 0Z" fill="#dc3545"></path></g><g transform="translate(0, 600)"><path d="M0 -324.5C26.6 -268.4 53.1 -212.4 77.7 -187.5C102.3 -162.7 124.9 -169.2 166.9 -166.9C208.9 -164.6 270.3 -153.5 299.8 -124.2C329.3 -94.9 326.9 -47.5 324.5 0L0 0Z" fill="#ed8f90"></path><path d="M0 -162.2C13.3 -134.2 26.6 -106.2 38.8 -93.8C51.1 -81.4 62.4 -84.6 83.4 -83.4C104.4 -82.3 135.1 -76.7 149.9 -62.1C164.7 -47.5 163.5 -23.7 162.2 0L0 0Z" fill="#dc3545"></path></g></svg>