<svg id="visual" viewBox="0 0 900 600" width="900" height="600" xmlns="http://www.w3.org/2000/svg" xmlns:xlink="http://www.w3.org/1999/xlink" version="1.1"><rect x="0" y="0" width="900" height="600" fill="#FFFFFF"></rect><path d="M0 489L16.7 494.5C33.3 500 66.7 511 100 504.2C133.3 497.3 166.7 472.7 200 472.8C233.3 473 266.7 498 300 501.2C333.3 504.3 366.7 485.7 400 468C433.3 450.3 466.7 433.7 500 421.3C533.3 409 566.7 401 600 401.7C633.3 402.3 666.7 411.7 700 433C733.3 454.3 766.7 487.7 800 489C833.3 490.3 866.7 459.7 883.3 444.3L900 429L900 601L883.3 601C866.7 601 833.3 601 800 601C766.7 601 733.3 601 700 601C666.7 601 633.3 601 600 601C566.7 601 533.3 601 500 601C466.7 601 433.3 601 400 601C366.7 601 333.3 601 300 601C266.7 601 233.3 601 200 601C166.7 601 133.3 601 100 601C66.7 601 33.3 601 16.7 601L0 601Z" fill="#dc3545" stroke-linecap="round" stroke-linejoin="miter"></path></svg>